<svg xmlns="http://www.w3.org/2000/svg" viewBox="0 0 1684 624">
  <title>Streamlio_Logo</title>
  <g id="Logo">
    <g id="Graphic">
      <path id="s" d="M726.62,362.18v-18.6A51.27,51.27,0,0,0,757.76,354q22.83,0,22.82-15.2a13.12,13.12,0,0,0-1.94-7.32,19.45,19.45,0,0,0-5.3-5.33,39.37,39.37,0,0,0-7.83-4.19c-3-1.23-6.19-2.52-9.65-3.85a125.64,125.64,0,0,1-12.62-5.77,38.34,38.34,0,0,1-9.08-6.53,24.27,24.27,0,0,1-5.48-8.29,29.25,29.25,0,0,1-1.84-10.88,26.07,26.07,0,0,1,3.46-13.49,31.33,31.33,0,0,1,9.29-9.8,43.26,43.26,0,0,1,13.28-6,58.55,58.55,0,0,1,15.35-2,62.64,62.64,0,0,1,25.13,4.83v17.56q-11.9-7.85-27.43-7.82a32,32,0,0,0-8.8,1.11,21.42,21.42,0,0,0-6.71,3.11,15,15,0,0,0-4.32,4.79,12.67,12.67,0,0,0-1.51,6.2,14.78,14.78,0,0,0,1.51,7.06,15.51,15.51,0,0,0,4.5,5.09,33.69,33.69,0,0,0,7.17,4c2.82,1.19,6,2.48,9.63,3.9a139.14,139.14,0,0,1,12.87,5.66,45.13,45.13,0,0,1,9.74,6.55,25.58,25.58,0,0,1,6.15,8.4,29.79,29.79,0,0,1-1.36,25.23,30.41,30.41,0,0,1-9.45,9.81,44.08,44.08,0,0,1-13.63,5.85,68.23,68.23,0,0,1-16.18,1.87C744.43,368.6,734.76,366.47,726.62,362.18Z"/>
      <path id="t" d="M866.64,365c-4.08,2.24-9.48,3.36-16.14,3.36q-28.46,0-28.42-31.65v-64H803.49V257.92h18.59v-40h17.31v40h27.25v14.79H839.39v61c0,7.24,1.23,12.39,3.71,15.5s6.53,4.64,12.22,4.64a18.26,18.26,0,0,0,11.32-3.56Z"/>
      <path id="r" d="M946.16,275.45c-3-2.31-7.39-3.46-13.08-3.46-7.42,0-13.59,3.46-18.57,10.45s-7.42,16.48-7.42,28.51v55.12H889.75V257.92h17.34v22.29h.43c2.45-7.62,6.2-13.52,11.28-17.78a25.71,25.71,0,0,1,17-6.41c4.51,0,7.93.5,10.34,1.47Z"/>
      <path id="e" d="M1049,316.32H972.67q.42,18.07,9.73,27.91T1008,354q18.27,0,33.55-12v16.25c-9.47,6.93-22.06,10.36-37.67,10.36q-22.92,0-36-14.71t-13.13-41.46q0-25.26,14.31-41.13t35.54-15.9c14.18,0,25.1,4.58,32.85,13.74S1049,291,1049,307.24v9.08Zm-17.73-14.67q-.12-15-7.2-23.36T1004.25,270a28,28,0,0,0-20.81,8.76q-8.55,8.75-10.56,22.92Z"/>
      <path id="a" d="M1148.43,366.07h-17.34v-16.9h-.4q-11.3,19.47-33.27,19.43-16.17,0-25.31-8.55t-9.11-22.7q0-30.28,35.68-35.26l32.41-4.55q0-27.57-22.28-27.57-19.51,0-35.25,13.29V265.53q15.95-10.15,36.73-10.13,38.12,0,38.14,40.34v70.33Zm-17.34-54.72L1105,315q-12.06,1.67-18.17,6t-6.13,15.14a16.52,16.52,0,0,0,5.66,12.94c3.76,3.35,8.76,5,15,5,8.58,0,15.67-3,21.27-9s8.39-13.65,8.39-22.88Z"/>
      <path id="m" d="M1325.11,366.07h-17.3V304c0-12-1.87-20.62-5.55-25.95s-9.92-8-18.64-8c-7.39,0-13.7,3.38-18.85,10.12s-7.8,14.86-7.8,24.3v61.68h-17.3v-64.2q0-31.9-24.62-31.9c-7.6,0-13.84,3.17-18.78,9.55s-7.39,14.67-7.39,24.87v61.68h-17.34V257.92h17.34v17.13h.43q11.48-19.68,33.57-19.65a31.38,31.38,0,0,1,19.32,6.16,31,31,0,0,1,11.31,16.23q12-22.4,35.91-22.39,35.68,0,35.69,44Z"/>
      <path id="l" d="M1374,335.87c0,9.88,3.83,14.89,11.51,14.89a28,28,0,0,0,8.32-1.17v15.65a52.72,52.72,0,0,1-12.33,1.49,27.35,27.35,0,0,1-9.73-1.71c-10.81-4.07-15.1-15.25-15.1-26.09V248.76c0-9.91-3.82-14.88-11.51-14.88a28,28,0,0,0-8.32,1.16V219.39a52.72,52.72,0,0,1,12.33-1.49,27.35,27.35,0,0,1,9.73,1.71c10.81,4.07,15.1,15.26,15.1,26.1Z"/>
      <path id="i" d="M1424,240.39a10.89,10.89,0,0,1-7.92-3.17,10.6,10.6,0,0,1-3.24-8A11.07,11.07,0,0,1,1424,217.9a11.2,11.2,0,0,1,8.08,3.24,10.82,10.82,0,0,1,3.36,8.08,10.67,10.67,0,0,1-3.36,7.89,11.08,11.08,0,0,1-8.08,3.28Zm8.47,95.48c0,9.91,3.83,14.89,11.51,14.89a28,28,0,0,0,8.32-1.17v15.65a50.2,50.2,0,0,1-5.33,1,48.61,48.61,0,0,1-7,.51,27.84,27.84,0,0,1-9.73-1.71,20.62,20.62,0,0,1-7.86-5.19,24.73,24.73,0,0,1-5.29-8.71,34.72,34.72,0,0,1-1.95-12.19v-81h17.33Z" fill="#56c5d0"/>
      <path id="o" d="M1516.33,368.6q-24,0-38.28-15.15t-14.31-40.19q0-27.25,14.89-42.57t40.26-15.29q24.18,0,37.75,14.89t13.55,41.27q0,25.9-14.6,41.46t-39.26,15.58Zm1.26-98.63q-16.63,0-26.38,11.35t-9.73,31.32q0,19.22,9.83,30.29T1517.59,354q16.82,0,25.85-10.88t9-30.92q0-20.3-9-31.26T1517.59,270Z" fill="#56c5d0"/>
      <g id="Graph">
        <g id="Branches">
          <g>
            <g>
              <path d="M202.88,478.44a1,1,0,0,1-1-1V472a1,1,0,0,1,1-1c46.41,0,84.88-8.23,117.59-25.16,29.18-15.1,51.24-35.59,72.57-55.41,4.2-3.9,8.53-7.93,12.86-11.86,36.2-32.87,70.39-63.92,124.59-69.4h.1a1,1,0,0,1,.71.28,1,1,0,0,1,.32.79c0,.6,0,1.21,0,1.82,0,1.15,0,2.33.14,3.52a1,1,0,0,1-.92,1.11c-51.62,5.42-84.77,35.54-119.87,67.42-4.31,3.91-8.64,7.93-12.83,11.82C354.4,436.47,309.2,478.44,202.88,478.44ZM632.11,315.75a1.07,1.07,0,0,1-.75-.32,1.1,1.1,0,0,1-.28-.77c.06-.9.09-1.79.09-2.65s0-1.76-.09-2.66a1.1,1.1,0,0,1,.28-.77,1.07,1.07,0,0,1,.75-.32h72.31a1,1,0,0,1,1,1v5.43a1,1,0,0,1-1,1Z" fill="#bbb"/>
              <path d="M704.42,309.29v5.43H632.11c.06-.9.09-1.8.09-2.71s0-1.82-.09-2.72h72.31m-173.83.86c0,.61,0,1.23,0,1.86,0,1.21.06,2.41.15,3.6-51.93,5.46-84.74,35.24-120.46,67.69-49.11,44.6-91.25,94.11-207.36,94.11V472c114,0,155.34-48.77,203.71-92.69,36.57-33.21,70.14-63.7,124-69.14m173.83-2.92H632.11a2.05,2.05,0,0,0-1.5.65,2,2,0,0,0-.55,1.54c.05.87.08,1.74.08,2.59s0,1.71-.08,2.58a2,2,0,0,0,.55,1.54,2.05,2.05,0,0,0,1.5.65h72.31a2.06,2.06,0,0,0,2.06-2.06v-5.43a2.06,2.06,0,0,0-2.06-2.06Zm-173.83.86h-.2c-54.54,5.5-88.85,36.67-125.18,69.66-4.33,3.93-8.67,8-12.87,11.86-21.28,19.78-43.29,40.22-72.34,55.26-32.57,16.85-70.88,25-117.12,25a2.06,2.06,0,0,0-2.06,2.06v5.43a2.07,2.07,0,0,0,2.06,2.07c47.84,0,87.53-8.5,121.33-26,30.12-15.57,52.73-36.57,74.6-56.87,4.19-3.89,8.51-7.91,12.82-11.82,17.92-16.27,34.84-31.65,53.87-43.74,21.25-13.52,42-21,65.41-23.41a2.07,2.07,0,0,0,1.85-2.22c-.09-1.16-.14-2.32-.14-3.44,0-.6,0-1.19,0-1.77a2.07,2.07,0,0,0-2.07-2.15Zm0,4.12h0Z" fill="#bbb"/>
            </g>
            <g>
              <path d="M632.11,315.75a1.07,1.07,0,0,1-.75-.32,1.1,1.1,0,0,1-.28-.77c.06-.9.09-1.79.09-2.65s0-1.76-.09-2.66a1.1,1.1,0,0,1,.28-.77,1.07,1.07,0,0,1,.75-.32h72.31a1,1,0,0,1,1,1v5.43a1,1,0,0,1-1,1Zm-101.62-.86c-54.21-5.48-88.4-36.53-124.59-69.4-4.32-3.93-8.66-8-12.85-11.85-21.34-19.83-43.4-40.32-72.58-55.42-32.71-16.93-71.18-25.16-117.59-25.16a1,1,0,0,1-1-1V146.6a1,1,0,0,1,1-1c106.32,0,151.52,42,195.23,82.56C402.3,232,406.63,236,410.94,240c35.1,31.88,68.26,62,119.87,67.42a1,1,0,0,1,.92,1.11c-.1,1.19-.14,2.38-.14,3.53,0,.6,0,1.2,0,1.81a1,1,0,0,1-.32.79,1,1,0,0,1-.71.28Z" fill="#bbb"/>
              <path d="M202.88,146.6c116.11,0,158.25,49.51,207.36,94.12C446,273.15,478.77,302.94,530.7,308.4c-.09,1.19-.15,2.39-.15,3.61,0,.62,0,1.23,0,1.85-53.86-5.44-87.43-35.93-124-69.14C358.22,200.8,316.9,152,202.88,152V146.6M704.42,309.29v5.43H632.11c.06-.9.09-1.8.09-2.71s0-1.82-.09-2.72h72.31M202.88,144.53a2.07,2.07,0,0,0-2.06,2.07V152a2.06,2.06,0,0,0,2.06,2.06c46.24,0,84.55,8.19,117.12,25,29.05,15,51.06,35.49,72.34,55.26,4.2,3.9,8.54,7.93,12.87,11.86,36.32,33,70.63,64.15,125.18,69.66h.2a2,2,0,0,0,1.42-.56,2.07,2.07,0,0,0,.65-1.59c0-.58,0-1.17,0-1.76,0-1.13,0-2.29.14-3.45a2.06,2.06,0,0,0-1.85-2.21c-23.37-2.46-44.16-9.9-65.41-23.42-19-12.09-35.95-27.47-53.87-43.74-4.3-3.91-8.63-7.93-12.81-11.81-21.87-20.31-44.49-41.31-74.6-56.88-33.81-17.47-73.49-26-121.34-26Zm501.54,162.7H632.11a2.05,2.05,0,0,0-1.5.65,2,2,0,0,0-.55,1.54c.05.87.08,1.74.08,2.59s0,1.71-.08,2.58a2,2,0,0,0,.55,1.54,2.05,2.05,0,0,0,1.5.65h72.31a2.06,2.06,0,0,0,2.06-2.06v-5.43a2.06,2.06,0,0,0-2.06-2.06Z" fill="#bbb"/>
            </g>
            <g>
              <path d="M632.11,315.75a1.07,1.07,0,0,1-.75-.32,1.1,1.1,0,0,1-.28-.77c.06-.9.09-1.79.09-2.65s0-1.76-.09-2.65a1.06,1.06,0,0,1,.28-.77,1,1,0,0,1,.75-.33h72.31a1,1,0,0,1,1,1v5.43a1,1,0,0,1-1,1Zm-101.63-1.11c-54.42-5.45-90.39-30.08-128.47-56.15-5-3.45-10-7-14.85-10.36-40.94-28.82-79.61-56-161.75-56a1,1,0,0,1-1-1v-5.42a1,1,0,0,1,1-1c84.43,0,124,27.88,166,57.4,4.82,3.39,9.8,6.9,14.82,10.33,37.14,25.43,72.22,49.44,124.59,54.83a1,1,0,0,1,.93,1.11c-.11,1.28-.16,2.54-.16,3.76,0,.52,0,1.05,0,1.57a1,1,0,0,1-.33.79,1,1,0,0,1-.7.28Z" fill="#bbb"/>
              <path d="M225.41,185.62c94,0,132.34,34.75,180.24,67.54,37.08,25.39,72.43,49.59,125.07,55-.11,1.27-.17,2.55-.17,3.85,0,.53,0,1.07,0,1.61-54.15-5.43-90.19-30.09-128-56C355.37,225.31,317.71,191,225.41,191v-5.42m479,123.67v5.43H632.11c.06-.9.09-1.8.09-2.71s0-1.82-.09-2.72h72.31m-479-125.74a2.07,2.07,0,0,0-2.06,2.07V191a2.07,2.07,0,0,0,2.06,2.07c81.82,0,120.35,27.14,161.16,55.87,4.82,3.4,9.82,6.91,14.86,10.36,38.19,26.15,74.26,50.85,129,56.33h.21a2.06,2.06,0,0,0,1.41-.56,2.08,2.08,0,0,0,.65-1.58q0-.77,0-1.53c0-1.19,0-2.43.16-3.67a2.08,2.08,0,0,0-1.85-2.23c-52.12-5.36-87.09-29.3-124.11-54.65-5-3.43-10-6.94-14.82-10.32-21.27-15-41.37-29.12-67.2-39.84-29.19-12.11-60.77-17.75-99.39-17.75Zm479,123.68H632.11a2.05,2.05,0,0,0-1.5.65,2,2,0,0,0-.55,1.54c.05.88.08,1.75.08,2.59s0,1.71-.08,2.58a2,2,0,0,0,.55,1.54,2.05,2.05,0,0,0,1.5.65h72.31a2.06,2.06,0,0,0,2.06-2.06v-5.43a2.06,2.06,0,0,0-2.06-2.06Z" fill="#bbb"/>
            </g>
            <g>
              <path d="M632.11,315.75a1.07,1.07,0,0,1-.75-.32,1.1,1.1,0,0,1-.28-.77c.06-.9.09-1.79.09-2.65s0-1.76-.09-2.65a1.06,1.06,0,0,1,.28-.77,1,1,0,0,1,.75-.33h72.31a1,1,0,0,1,1,1v5.43a1,1,0,0,1-1,1Zm-101.59-.83c-48.2-3.62-79.21-18.72-112-34.71-4.51-2.2-9-4.44-13.31-6.61-37.77-19-73.44-36.87-157.36-36.87a1,1,0,0,1-1-1v-5.43a1,1,0,0,1,1-1c85.63,0,122.06,18.28,160.63,37.63,4.33,2.17,8.81,4.42,13.31,6.61,32.06,15.62,62.33,30.37,109,33.95a1,1,0,0,1,.71.36,1,1,0,0,1,.24.75c-.09,1.15-.13,2.32-.13,3.48,0,.61,0,1.23,0,1.84a1,1,0,0,1-1,1.08Z" fill="#bbb"/>
              <path d="M247.82,230.26c95.25,0,129.91,22.91,173.49,44.14,32.22,15.7,62.52,30.45,109.39,34.05-.1,1.18-.15,2.36-.15,3.56,0,.63,0,1.26.05,1.89-48-3.61-78.86-18.64-111.66-34.62-43-21-77.11-43.59-171.12-43.59v-5.43m456.6,79v5.43H632.11c.06-.9.09-1.8.09-2.71s0-1.82-.09-2.72h72.31M247.82,228.2a2.07,2.07,0,0,0-2.07,2.06v5.43a2.07,2.07,0,0,0,2.07,2.07c83.68,0,119.24,17.85,156.89,36.76,4.33,2.17,8.81,4.42,13.32,6.62,32.92,16,64,31.17,112.41,34.81h.16a2.11,2.11,0,0,0,1.44-.58,2.07,2.07,0,0,0,.62-1.58c0-.61,0-1.21,0-1.79,0-1.14,0-2.28.13-3.39a2,2,0,0,0-.49-1.51,2.05,2.05,0,0,0-1.41-.71c-46.48-3.58-76.67-18.28-108.63-33.85-4.51-2.2-9-4.44-13.31-6.61-38.68-19.41-75.21-37.74-161.09-37.74Zm456.6,79H632.11a2.05,2.05,0,0,0-1.5.65,2,2,0,0,0-.55,1.54c.05.88.08,1.75.08,2.59s0,1.71-.08,2.58a2,2,0,0,0,.55,1.54,2.05,2.05,0,0,0,1.5.65h72.31a2.06,2.06,0,0,0,2.06-2.06v-5.43a2.06,2.06,0,0,0-2.06-2.06Z" fill="#bbb"/>
            </g>
            <g>
              <path d="M225.41,439.43a1,1,0,0,1-1-1V433a1,1,0,0,1,1-1c82.14,0,120.81-27.23,161.75-56.06C392,372.48,397,369,402,365.52c38.08-26.07,74-50.7,128.47-56.15h.11a1,1,0,0,1,.7.28,1.05,1.05,0,0,1,.33.79c0,.52,0,1.05,0,1.58,0,1.22,0,2.49.16,3.75a1,1,0,0,1-.92,1.11c-52.39,5.39-87.46,29.41-124.6,54.83-5,3.44-10,6.94-14.83,10.34C349.46,411.55,309.84,439.43,225.41,439.43Zm406.7-123.68a1.07,1.07,0,0,1-.75-.32,1.1,1.1,0,0,1-.28-.77c.06-.9.09-1.79.09-2.65s0-1.76-.09-2.65a1.06,1.06,0,0,1,.28-.77,1,1,0,0,1,.75-.33h72.31a1,1,0,0,1,1,1v5.43a1,1,0,0,1-1,1Z" fill="#bbb"/>
              <path d="M704.42,309.29v5.43H632.11c.06-.9.09-1.8.09-2.71s0-1.82-.09-2.72h72.31M530.59,310.4c0,.53,0,1.06,0,1.61,0,1.29.06,2.57.17,3.84-52.64,5.41-88,29.61-125.07,55-47.9,32.79-86.28,67.55-180.24,67.55V433c92.3,0,130-34.27,177.18-66.6,37.81-25.89,73.85-50.55,128-56m173.83-3.17H632.11a2.05,2.05,0,0,0-1.5.65,2,2,0,0,0-.55,1.54c.05.88.08,1.75.08,2.59s0,1.71-.08,2.58a2,2,0,0,0,.55,1.54,2.05,2.05,0,0,0,1.5.65h72.31a2.06,2.06,0,0,0,2.06-2.06v-5.43a2.06,2.06,0,0,0-2.06-2.06Zm-173.83,1.1h-.21c-54.7,5.48-90.76,30.18-128.95,56.33-5,3.45-10,7-14.87,10.37-40.8,28.73-79.34,55.86-161.15,55.86a2.07,2.07,0,0,0-2.06,2.07v5.43a2.06,2.06,0,0,0,2.06,2.06c84.76,0,124.5-28,166.59-57.58,4.82-3.39,9.8-6.9,14.81-10.33,37-25.35,72-49.29,124.12-54.65a2.07,2.07,0,0,0,1.85-2.23c-.11-1.23-.16-2.46-.16-3.66,0-.52,0-1,0-1.54a2.1,2.1,0,0,0-.65-1.58,2.06,2.06,0,0,0-1.41-.56Zm0,4.13Z" fill="#bbb"/>
            </g>
            <g>
              <path d="M247.82,394.78a1,1,0,0,1-1-1v-5.43a1,1,0,0,1,1-1c83.92,0,119.59-17.91,157.35-36.87,4.33-2.17,8.8-4.42,13.32-6.62,32.82-16,63.81-31.08,112-34.71h.08a1,1,0,0,1,1,1.08c0,.61,0,1.23,0,1.85,0,1.16,0,2.32.13,3.47a1,1,0,0,1-.24.75,1.07,1.07,0,0,1-.71.36c-46.68,3.59-77,18.33-109,34-4.5,2.19-9,4.44-13.31,6.61C369.88,376.51,333.45,394.78,247.82,394.78Zm384.29-79a1.07,1.07,0,0,1-.75-.32,1.1,1.1,0,0,1-.28-.77c.06-.9.09-1.79.09-2.65s0-1.76-.09-2.65a1.06,1.06,0,0,1,.28-.77,1,1,0,0,1,.75-.33h72.31a1,1,0,0,1,1,1v5.43a1,1,0,0,1-1,1Z" fill="#bbb"/>
              <path d="M704.42,309.29v5.43H632.11c.06-.9.09-1.8.09-2.71s0-1.82-.09-2.72h72.31m-173.82.82c0,.63-.05,1.26-.05,1.9,0,1.19.05,2.37.15,3.55-46.87,3.6-77.17,18.36-109.39,34.05-43.58,21.23-78.24,44.14-173.49,44.14v-5.43c94,0,128.08-22.63,171.12-43.59,32.8-16,63.65-31,111.66-34.62m173.82-2.88H632.11a2.05,2.05,0,0,0-1.5.65,2,2,0,0,0-.55,1.54c.05.88.08,1.75.08,2.59s0,1.71-.08,2.58a2,2,0,0,0,.55,1.54,2.05,2.05,0,0,0,1.5.65h72.31a2.06,2.06,0,0,0,2.06-2.06v-5.43a2.06,2.06,0,0,0-2.06-2.06Zm-173.82.82h-.16C482,311.7,450.94,326.84,418,342.88c-4.51,2.2-9,4.44-13.32,6.62-37.65,18.9-73.21,36.76-156.89,36.76a2.07,2.07,0,0,0-2.07,2.06v5.43a2.07,2.07,0,0,0,2.07,2.07c85.88,0,122.41-18.34,161.09-37.74,4.33-2.18,8.8-4.42,13.31-6.61,31.95-15.57,62.14-30.28,108.63-33.86a2.05,2.05,0,0,0,1.41-.71,2,2,0,0,0,.49-1.51c-.09-1.11-.13-2.25-.13-3.38,0-.59,0-1.19,0-1.8a2.07,2.07,0,0,0-2.06-2.16Zm0,4.13Z" fill="#bbb"/>
            </g>
          </g>
        </g>
        <path id="Node_Root" d="M591.52,274.16a39,39,0,0,0-29.08,3.53h0l-.65.38a39.05,39.05,0,0,0-15.55,16.59,39.52,39.52,0,0,0-4,14.81,39.55,39.55,0,0,0,.24,7.69,38.41,38.41,0,0,0,1.63,7.09,39.43,39.43,0,0,0,2.92,6.7h0l.38.66h0a38.65,38.65,0,0,0,4.47,6.26,38.24,38.24,0,0,0,5.58,5.23,39.18,39.18,0,0,0,13.74,6.77,40.07,40.07,0,0,0,7.6,1.26,38.94,38.94,0,0,0,21.82-5L601,346a38.94,38.94,0,0,0,15.53-16.59,38.41,38.41,0,0,0,2.71-7.21,38.93,38.93,0,0,0-.6-22.37h0a39.19,39.19,0,0,0-2.91-6.68h0l-.39-.66h0a39.27,39.27,0,0,0-4.47-6.26,39.23,39.23,0,0,0-12.12-9.29A39.85,39.85,0,0,0,591.52,274.16Z" fill="#56c5d0"/>
        <g id="Node_Group_A">
          <path id="Node_A_3" d="M158.64,235.9a38,38,0,1,0,62-35.83c-.18.85-.38,1.7-.6,2.54a48,48,0,0,1-22.42,29.22h0a48,48,0,0,1-36.51,4.81C160.3,236.41,159.47,236.17,158.64,235.9Z" fill="#315b9d" fill-rule="evenodd"/>
          <path id="Node_A_2" d="M136.16,197a38,38,0,1,0,62.05-35.82c-.18.85-.38,1.7-.61,2.54a48,48,0,0,1-22.41,29.22h0a48,48,0,0,1-36.49,4.81C137.83,197.49,137,197.24,136.16,197Z" fill="#315b9d" fill-rule="evenodd"/>
          <path id="Node_A_1" d="M132.1,118.29h0a38.07,38.07,0,0,0-13.92,52h0a38.06,38.06,0,0,0,52,13.93h0a38.07,38.07,0,0,0,13.93-51.95h0a38.05,38.05,0,0,0-52-13.93Z" fill="#315b9d" fill-rule="evenodd"/>
        </g>
        <g id="Node_Group_A-2" data-name="Node_Group_A">
          <path id="Node_B_3" d="M158.64,388.11a38,38,0,1,1,62,35.82c-.18-.85-.38-1.69-.6-2.53a48,48,0,0,0-22.42-29.22h0a48,48,0,0,0-36.51-4.81C160.3,387.59,159.47,387.84,158.64,388.11Z" fill="#6bc392" fill-rule="evenodd"/>
          <path id="Node_B_2" d="M136.16,427a38,38,0,1,1,62.05,35.82c-.18-.85-.38-1.69-.61-2.53a47.93,47.93,0,0,0-22.41-29.22h0a48,48,0,0,0-36.49-4.8C137.83,426.51,137,426.76,136.16,427Z" fill="#6bc392" fill-rule="evenodd"/>
          <path id="Node_B_1" d="M132.1,505.71h0a38.06,38.06,0,0,1-13.92-52h0a38.07,38.07,0,0,1,52-13.94h0a38.07,38.07,0,0,1,13.93,52h0a38.06,38.06,0,0,1-52,13.92Z" fill="#6bc392" fill-rule="evenodd"/>
        </g>
      </g>
    </g>
  </g>
</svg>
